<svg width="1201" height="4673" viewBox="0 0 1201 4673" fill="none" xmlns="http://www.w3.org/2000/svg">
<mask id="mask0_261_47" style="mask-type:alpha" maskUnits="userSpaceOnUse" x="0" y="0" width="1201" height="4673">
<rect x="0.00390625" width="1200" height="4673" fill="white"/>
</mask>
<g mask="url(#mask0_261_47)">
<rect x="0.00390625" width="1200" height="4673" fill="white"/>
<g filter="url(#filter0_f_261_47)">
<rect x="-130" y="23.3428" width="133.565" height="419" rx="56" transform="rotate(-16.2355 -130 23.3428)" fill="#94BBE9" fill-opacity="0.4"/>
</g>
<g filter="url(#filter1_f_261_47)">
<rect x="-9" y="71.3429" width="133.565" height="419" rx="56" transform="rotate(-16.2355 -9 71.3429)" fill="#BF7ADF" fill-opacity="0.4"/>
<rect x="-9" y="71.3429" width="133.565" height="419" rx="56" transform="rotate(-16.2355 -9 71.3429)" fill="#BF7ADF" fill-opacity="0.4"/>
</g>
<g filter="url(#filter2_f_261_47)">
<rect x="84" y="-13.6572" width="133.565" height="419" rx="56" transform="rotate(-16.2355 84 -13.6572)" fill="#BF7ADF" fill-opacity="0.4"/>
<rect x="84" y="-13.6572" width="133.565" height="419" rx="56" transform="rotate(-16.2355 84 -13.6572)" fill="#DF7A7A" fill-opacity="0.4"/>
</g>
<g filter="url(#filter3_f_261_47)">
<rect x="202" y="286.343" width="133.565" height="419" rx="56" transform="rotate(-16.2355 202 286.343)" fill="#94BBE9" fill-opacity="0.4"/>
</g>
<g filter="url(#filter4_f_261_47)">
<rect x="767" y="-231.657" width="133.565" height="419" rx="56" transform="rotate(-16.2355 767 -231.657)" fill="#94BBE9" fill-opacity="0.4"/>
</g>
<g filter="url(#filter5_f_261_47)">
<rect x="888" y="-183.657" width="133.565" height="419" rx="56" transform="rotate(-16.2355 888 -183.657)" fill="#BF7ADF" fill-opacity="0.4"/>
<rect x="888" y="-183.657" width="133.565" height="419" rx="56" transform="rotate(-16.2355 888 -183.657)" fill="#BF7ADF" fill-opacity="0.4"/>
</g>
<g filter="url(#filter6_f_261_47)">
<rect x="981" y="-268.657" width="133.565" height="419" rx="56" transform="rotate(-16.2355 981 -268.657)" fill="#BF7ADF" fill-opacity="0.4"/>
<rect x="981" y="-268.657" width="133.565" height="419" rx="56" transform="rotate(-16.2355 981 -268.657)" fill="#DF7A7A" fill-opacity="0.4"/>
</g>
<g filter="url(#filter7_f_261_47)">
<rect x="1099" y="31.3428" width="133.565" height="419" rx="56" transform="rotate(-16.2355 1099 31.3428)" fill="#94BBE9" fill-opacity="0.4"/>
</g>
<g filter="url(#filter8_f_261_47)">
<rect x="1034.26" y="550.321" width="133.565" height="419" rx="56" transform="rotate(24.5127 1034.26 550.321)" fill="#94BBE9" fill-opacity="0.4"/>
</g>
<g filter="url(#filter9_f_261_47)">
<rect x="1094.6" y="665.666" width="133.565" height="419" rx="56" transform="rotate(24.5127 1094.6 665.666)" fill="#BF7ADF" fill-opacity="0.4"/>
<rect x="1094.6" y="665.666" width="133.565" height="419" rx="56" transform="rotate(24.5127 1094.6 665.666)" fill="#BF7ADF" fill-opacity="0.4"/>
</g>
<g filter="url(#filter10_f_261_47)">
<rect x="1220.53" y="661.976" width="133.565" height="419" rx="56" transform="rotate(24.5127 1220.53 661.976)" fill="#BF7ADF" fill-opacity="0.4"/>
<rect x="1220.53" y="661.976" width="133.565" height="419" rx="56" transform="rotate(24.5127 1220.53 661.976)" fill="#DF7A7A" fill-opacity="0.4"/>
</g>
<g filter="url(#filter11_f_261_47)">
<rect x="1114.11" y="966.274" width="133.565" height="419" rx="56" transform="rotate(24.5127 1114.11 966.274)" fill="#94BBE9" fill-opacity="0.4"/>
</g>
<g filter="url(#filter12_f_261_47)">
<rect x="-81.4106" y="1726.25" width="133.565" height="419" rx="56" transform="rotate(-69.5137 -81.4106 1726.25)" fill="#94BBE9" fill-opacity="0.4"/>
</g>
<g filter="url(#filter13_f_261_47)">
<rect x="29.4131" y="1657.97" width="133.565" height="419" rx="56" transform="rotate(-69.5137 29.4131 1657.97)" fill="#BF7ADF" fill-opacity="0.4"/>
<rect x="29.4131" y="1657.97" width="133.565" height="419" rx="56" transform="rotate(-69.5137 29.4131 1657.97)" fill="#BF7ADF" fill-opacity="0.4"/>
</g>
<g filter="url(#filter14_f_261_47)">
<rect x="16.8892" y="1532.6" width="133.565" height="419" rx="56" transform="rotate(-69.5137 16.8892 1532.6)" fill="#BF7ADF" fill-opacity="0.4"/>
<rect x="16.8892" y="1532.6" width="133.565" height="419" rx="56" transform="rotate(-69.5137 16.8892 1532.6)" fill="#DF7A7A" fill-opacity="0.4"/>
</g>
<g filter="url(#filter15_f_261_47)">
<rect x="327.909" y="1617.4" width="133.565" height="419" rx="56" transform="rotate(-69.5137 327.909 1617.4)" fill="#94BBE9" fill-opacity="0.4"/>
</g>
<g filter="url(#filter16_f_261_47)">
<rect width="154.185" height="515.492" rx="56" transform="matrix(-0.820289 -0.571949 0.604746 -0.796419 873.621 2822.25)" fill="#94BBE9" fill-opacity="0.4"/>
</g>
<g filter="url(#filter17_f_261_47)">
<rect width="154.185" height="515.492" rx="56" transform="matrix(-0.820289 -0.571949 0.604746 -0.796419 835.778 2676.1)" fill="#BF7ADF" fill-opacity="0.4"/>
<rect width="154.185" height="515.492" rx="56" transform="matrix(-0.820289 -0.571949 0.604746 -0.796419 835.778 2676.1)" fill="#BF7ADF" fill-opacity="0.4"/>
</g>
<g filter="url(#filter18_f_261_47)">
<rect width="154.185" height="515.492" rx="56" transform="matrix(-0.820289 -0.571949 0.604746 -0.796419 687.349 2655.95)" fill="#BF7ADF" fill-opacity="0.4"/>
<rect width="154.185" height="515.492" rx="56" transform="matrix(-0.820289 -0.571949 0.604746 -0.796419 687.349 2655.95)" fill="#DF7A7A" fill-opacity="0.4"/>
</g>
<g filter="url(#filter19_f_261_47)">
<rect width="154.185" height="515.492" rx="56" transform="matrix(-0.820289 -0.571949 0.604746 -0.796419 898.34 2321.97)" fill="#94BBE9" fill-opacity="0.4"/>
</g>
<g filter="url(#filter20_f_261_47)">
<rect x="429.325" y="3169.87" width="133.565" height="419" rx="56" transform="rotate(143.194 429.325 3169.87)" fill="#94BBE9" fill-opacity="0.4"/>
</g>
<g filter="url(#filter21_f_261_47)">
<rect x="299.174" y="3167.45" width="133.565" height="419" rx="56" transform="rotate(143.194 299.174 3167.45)" fill="#BF7ADF" fill-opacity="0.4"/>
<rect x="299.174" y="3167.45" width="133.565" height="419" rx="56" transform="rotate(143.194 299.174 3167.45)" fill="#BF7ADF" fill-opacity="0.4"/>
</g>
<g filter="url(#filter22_f_261_47)">
<rect x="241.969" y="3279.7" width="133.565" height="419" rx="56" transform="rotate(143.194 241.969 3279.7)" fill="#BF7ADF" fill-opacity="0.4"/>
<rect x="241.969" y="3279.7" width="133.565" height="419" rx="56" transform="rotate(143.194 241.969 3279.7)" fill="#DF7A7A" fill-opacity="0.4"/>
</g>
<g filter="url(#filter23_f_261_47)">
<rect x="26.0859" y="3040.29" width="133.565" height="419" rx="56" transform="rotate(143.194 26.0859 3040.29)" fill="#94BBE9" fill-opacity="0.4"/>
</g>
<g filter="url(#filter24_f_261_47)">
<rect width="184.464" height="532.076" rx="56" transform="matrix(0.908359 0.418191 -0.369007 0.929427 751.66 3176.24)" fill="#94BBE9" fill-opacity="0.4"/>
</g>
<g filter="url(#filter25_f_261_47)">
<rect width="184.464" height="532.076" rx="56" transform="matrix(0.908359 0.418191 -0.369007 0.929427 843.12 3329.91)" fill="#BF7ADF" fill-opacity="0.4"/>
<rect width="184.464" height="532.076" rx="56" transform="matrix(0.908359 0.418191 -0.369007 0.929427 843.12 3329.91)" fill="#BF7ADF" fill-opacity="0.4"/>
</g>
<g filter="url(#filter26_f_261_47)">
<rect width="184.464" height="532.076" rx="56" transform="matrix(0.908359 0.418191 -0.369007 0.929427 1011.01 3329.57)" fill="#BF7ADF" fill-opacity="0.4"/>
<rect width="184.464" height="532.076" rx="56" transform="matrix(0.908359 0.418191 -0.369007 0.929427 1011.01 3329.57)" fill="#DF7A7A" fill-opacity="0.4"/>
</g>
<g filter="url(#filter27_f_261_47)">
<rect width="184.464" height="532.076" rx="56" transform="matrix(0.908359 0.418191 -0.369007 0.929427 897.484 3725.46)" fill="#94BBE9" fill-opacity="0.4"/>
</g>
<g filter="url(#filter28_f_261_47)">
<rect width="131.588" height="419.51" rx="56" transform="matrix(0.600879 -0.79934 0.793129 0.609053 -219.624 4506.02)" fill="#94BBE9" fill-opacity="0.4"/>
</g>
<g filter="url(#filter29_f_261_47)">
<rect width="131.588" height="419.51" rx="56" transform="matrix(0.600879 -0.79934 0.793129 0.609053 -95.334 4473.83)" fill="#BF7ADF" fill-opacity="0.4"/>
<rect width="131.588" height="419.51" rx="56" transform="matrix(0.600879 -0.79934 0.793129 0.609053 -95.334 4473.83)" fill="#BF7ADF" fill-opacity="0.4"/>
</g>
<g filter="url(#filter30_f_261_47)">
<rect width="131.588" height="419.51" rx="56" transform="matrix(0.600879 -0.79934 0.793129 0.609053 -72.5654 4350.89)" fill="#BF7ADF" fill-opacity="0.4"/>
<rect width="131.588" height="419.51" rx="56" transform="matrix(0.600879 -0.79934 0.793129 0.609053 -72.5654 4350.89)" fill="#DF7A7A" fill-opacity="0.4"/>
</g>
<g filter="url(#filter31_f_261_47)">
<rect width="131.588" height="419.51" rx="56" transform="matrix(0.600879 -0.79934 0.793129 0.609053 199.776 4523.48)" fill="#94BBE9" fill-opacity="0.4"/>
</g>
</g>
<defs>
<filter id="filter0_f_261_47" x="-266.591" y="-150.591" width="518.567" height="712.815" filterUnits="userSpaceOnUse" color-interpolation-filters="sRGB">
<feFlood flood-opacity="0" result="BackgroundImageFix"/>
<feBlend mode="normal" in="SourceGraphic" in2="BackgroundImageFix" result="shape"/>
<feGaussianBlur stdDeviation="75" result="effect1_foregroundBlur_261_47"/>
</filter>
<filter id="filter1_f_261_47" x="-145.591" y="-102.591" width="518.567" height="712.815" filterUnits="userSpaceOnUse" color-interpolation-filters="sRGB">
<feFlood flood-opacity="0" result="BackgroundImageFix"/>
<feBlend mode="normal" in="SourceGraphic" in2="BackgroundImageFix" result="shape"/>
<feGaussianBlur stdDeviation="75" result="effect1_foregroundBlur_261_47"/>
</filter>
<filter id="filter2_f_261_47" x="-52.5908" y="-187.591" width="518.567" height="712.815" filterUnits="userSpaceOnUse" color-interpolation-filters="sRGB">
<feFlood flood-opacity="0" result="BackgroundImageFix"/>
<feBlend mode="normal" in="SourceGraphic" in2="BackgroundImageFix" result="shape"/>
<feGaussianBlur stdDeviation="75" result="effect1_foregroundBlur_261_47"/>
</filter>
<filter id="filter3_f_261_47" x="65.4092" y="112.409" width="518.567" height="712.815" filterUnits="userSpaceOnUse" color-interpolation-filters="sRGB">
<feFlood flood-opacity="0" result="BackgroundImageFix"/>
<feBlend mode="normal" in="SourceGraphic" in2="BackgroundImageFix" result="shape"/>
<feGaussianBlur stdDeviation="75" result="effect1_foregroundBlur_261_47"/>
</filter>
<filter id="filter4_f_261_47" x="630.409" y="-405.591" width="518.567" height="712.815" filterUnits="userSpaceOnUse" color-interpolation-filters="sRGB">
<feFlood flood-opacity="0" result="BackgroundImageFix"/>
<feBlend mode="normal" in="SourceGraphic" in2="BackgroundImageFix" result="shape"/>
<feGaussianBlur stdDeviation="75" result="effect1_foregroundBlur_261_47"/>
</filter>
<filter id="filter5_f_261_47" x="751.409" y="-357.591" width="518.567" height="712.815" filterUnits="userSpaceOnUse" color-interpolation-filters="sRGB">
<feFlood flood-opacity="0" result="BackgroundImageFix"/>
<feBlend mode="normal" in="SourceGraphic" in2="BackgroundImageFix" result="shape"/>
<feGaussianBlur stdDeviation="75" result="effect1_foregroundBlur_261_47"/>
</filter>
<filter id="filter6_f_261_47" x="844.409" y="-442.591" width="518.567" height="712.815" filterUnits="userSpaceOnUse" color-interpolation-filters="sRGB">
<feFlood flood-opacity="0" result="BackgroundImageFix"/>
<feBlend mode="normal" in="SourceGraphic" in2="BackgroundImageFix" result="shape"/>
<feGaussianBlur stdDeviation="75" result="effect1_foregroundBlur_261_47"/>
</filter>
<filter id="filter7_f_261_47" x="962.409" y="-142.591" width="518.567" height="712.815" filterUnits="userSpaceOnUse" color-interpolation-filters="sRGB">
<feFlood flood-opacity="0" result="BackgroundImageFix"/>
<feBlend mode="normal" in="SourceGraphic" in2="BackgroundImageFix" result="shape"/>
<feGaussianBlur stdDeviation="75" result="effect1_foregroundBlur_261_47"/>
</filter>
<filter id="filter8_f_261_47" x="728.591" y="418.494" width="559.021" height="700.304" filterUnits="userSpaceOnUse" color-interpolation-filters="sRGB">
<feFlood flood-opacity="0" result="BackgroundImageFix"/>
<feBlend mode="normal" in="SourceGraphic" in2="BackgroundImageFix" result="shape"/>
<feGaussianBlur stdDeviation="75" result="effect1_foregroundBlur_261_47"/>
</filter>
<filter id="filter9_f_261_47" x="788.928" y="533.839" width="559.021" height="700.304" filterUnits="userSpaceOnUse" color-interpolation-filters="sRGB">
<feFlood flood-opacity="0" result="BackgroundImageFix"/>
<feBlend mode="normal" in="SourceGraphic" in2="BackgroundImageFix" result="shape"/>
<feGaussianBlur stdDeviation="75" result="effect1_foregroundBlur_261_47"/>
</filter>
<filter id="filter10_f_261_47" x="914.866" y="530.149" width="559.021" height="700.304" filterUnits="userSpaceOnUse" color-interpolation-filters="sRGB">
<feFlood flood-opacity="0" result="BackgroundImageFix"/>
<feBlend mode="normal" in="SourceGraphic" in2="BackgroundImageFix" result="shape"/>
<feGaussianBlur stdDeviation="75" result="effect1_foregroundBlur_261_47"/>
</filter>
<filter id="filter11_f_261_47" x="808.44" y="834.448" width="559.021" height="700.304" filterUnits="userSpaceOnUse" color-interpolation-filters="sRGB">
<feFlood flood-opacity="0" result="BackgroundImageFix"/>
<feBlend mode="normal" in="SourceGraphic" in2="BackgroundImageFix" result="shape"/>
<feGaussianBlur stdDeviation="75" result="effect1_foregroundBlur_261_47"/>
</filter>
<filter id="filter12_f_261_47" x="-215.369" y="1467.18" width="707.162" height="539.677" filterUnits="userSpaceOnUse" color-interpolation-filters="sRGB">
<feFlood flood-opacity="0" result="BackgroundImageFix"/>
<feBlend mode="normal" in="SourceGraphic" in2="BackgroundImageFix" result="shape"/>
<feGaussianBlur stdDeviation="75" result="effect1_foregroundBlur_261_47"/>
</filter>
<filter id="filter13_f_261_47" x="-104.545" y="1398.89" width="707.162" height="539.677" filterUnits="userSpaceOnUse" color-interpolation-filters="sRGB">
<feFlood flood-opacity="0" result="BackgroundImageFix"/>
<feBlend mode="normal" in="SourceGraphic" in2="BackgroundImageFix" result="shape"/>
<feGaussianBlur stdDeviation="75" result="effect1_foregroundBlur_261_47"/>
</filter>
<filter id="filter14_f_261_47" x="-117.069" y="1273.52" width="707.162" height="539.677" filterUnits="userSpaceOnUse" color-interpolation-filters="sRGB">
<feFlood flood-opacity="0" result="BackgroundImageFix"/>
<feBlend mode="normal" in="SourceGraphic" in2="BackgroundImageFix" result="shape"/>
<feGaussianBlur stdDeviation="75" result="effect1_foregroundBlur_261_47"/>
</filter>
<filter id="filter15_f_261_47" x="193.951" y="1358.32" width="707.162" height="539.677" filterUnits="userSpaceOnUse" color-interpolation-filters="sRGB">
<feFlood flood-opacity="0" result="BackgroundImageFix"/>
<feBlend mode="normal" in="SourceGraphic" in2="BackgroundImageFix" result="shape"/>
<feGaussianBlur stdDeviation="75" result="effect1_foregroundBlur_261_47"/>
</filter>
<filter id="filter16_f_261_47" x="619.873" y="2195.23" width="692.762" height="755.302" filterUnits="userSpaceOnUse" color-interpolation-filters="sRGB">
<feFlood flood-opacity="0" result="BackgroundImageFix"/>
<feBlend mode="normal" in="SourceGraphic" in2="BackgroundImageFix" result="shape"/>
<feGaussianBlur stdDeviation="75" result="effect1_foregroundBlur_261_47"/>
</filter>
<filter id="filter17_f_261_47" x="582.03" y="2049.09" width="692.762" height="755.302" filterUnits="userSpaceOnUse" color-interpolation-filters="sRGB">
<feFlood flood-opacity="0" result="BackgroundImageFix"/>
<feBlend mode="normal" in="SourceGraphic" in2="BackgroundImageFix" result="shape"/>
<feGaussianBlur stdDeviation="75" result="effect1_foregroundBlur_261_47"/>
</filter>
<filter id="filter18_f_261_47" x="433.6" y="2028.93" width="692.762" height="755.302" filterUnits="userSpaceOnUse" color-interpolation-filters="sRGB">
<feFlood flood-opacity="0" result="BackgroundImageFix"/>
<feBlend mode="normal" in="SourceGraphic" in2="BackgroundImageFix" result="shape"/>
<feGaussianBlur stdDeviation="75" result="effect1_foregroundBlur_261_47"/>
</filter>
<filter id="filter19_f_261_47" x="644.591" y="1694.95" width="692.762" height="755.303" filterUnits="userSpaceOnUse" color-interpolation-filters="sRGB">
<feFlood flood-opacity="0" result="BackgroundImageFix"/>
<feBlend mode="normal" in="SourceGraphic" in2="BackgroundImageFix" result="shape"/>
<feGaussianBlur stdDeviation="75" result="effect1_foregroundBlur_261_47"/>
</filter>
<filter id="filter20_f_261_47" x="-56.2568" y="2706.78" width="613.197" height="670.733" filterUnits="userSpaceOnUse" color-interpolation-filters="sRGB">
<feFlood flood-opacity="0" result="BackgroundImageFix"/>
<feBlend mode="normal" in="SourceGraphic" in2="BackgroundImageFix" result="shape"/>
<feGaussianBlur stdDeviation="75" result="effect1_foregroundBlur_261_47"/>
</filter>
<filter id="filter21_f_261_47" x="-186.407" y="2704.35" width="613.197" height="670.733" filterUnits="userSpaceOnUse" color-interpolation-filters="sRGB">
<feFlood flood-opacity="0" result="BackgroundImageFix"/>
<feBlend mode="normal" in="SourceGraphic" in2="BackgroundImageFix" result="shape"/>
<feGaussianBlur stdDeviation="75" result="effect1_foregroundBlur_261_47"/>
</filter>
<filter id="filter22_f_261_47" x="-243.613" y="2816.61" width="613.197" height="670.733" filterUnits="userSpaceOnUse" color-interpolation-filters="sRGB">
<feFlood flood-opacity="0" result="BackgroundImageFix"/>
<feBlend mode="normal" in="SourceGraphic" in2="BackgroundImageFix" result="shape"/>
<feGaussianBlur stdDeviation="75" result="effect1_foregroundBlur_261_47"/>
</filter>
<filter id="filter23_f_261_47" x="-459.496" y="2577.19" width="613.197" height="670.733" filterUnits="userSpaceOnUse" color-interpolation-filters="sRGB">
<feFlood flood-opacity="0" result="BackgroundImageFix"/>
<feBlend mode="normal" in="SourceGraphic" in2="BackgroundImageFix" result="shape"/>
<feGaussianBlur stdDeviation="75" result="effect1_foregroundBlur_261_47"/>
</filter>
<filter id="filter24_f_261_47" x="421.933" y="3044.62" width="630.674" height="834.909" filterUnits="userSpaceOnUse" color-interpolation-filters="sRGB">
<feFlood flood-opacity="0" result="BackgroundImageFix"/>
<feBlend mode="normal" in="SourceGraphic" in2="BackgroundImageFix" result="shape"/>
<feGaussianBlur stdDeviation="75" result="effect1_foregroundBlur_261_47"/>
</filter>
<filter id="filter25_f_261_47" x="513.393" y="3198.29" width="630.674" height="834.909" filterUnits="userSpaceOnUse" color-interpolation-filters="sRGB">
<feFlood flood-opacity="0" result="BackgroundImageFix"/>
<feBlend mode="normal" in="SourceGraphic" in2="BackgroundImageFix" result="shape"/>
<feGaussianBlur stdDeviation="75" result="effect1_foregroundBlur_261_47"/>
</filter>
<filter id="filter26_f_261_47" x="681.286" y="3197.95" width="630.674" height="834.909" filterUnits="userSpaceOnUse" color-interpolation-filters="sRGB">
<feFlood flood-opacity="0" result="BackgroundImageFix"/>
<feBlend mode="normal" in="SourceGraphic" in2="BackgroundImageFix" result="shape"/>
<feGaussianBlur stdDeviation="75" result="effect1_foregroundBlur_261_47"/>
</filter>
<filter id="filter27_f_261_47" x="567.757" y="3593.84" width="630.674" height="834.909" filterUnits="userSpaceOnUse" color-interpolation-filters="sRGB">
<feFlood flood-opacity="0" result="BackgroundImageFix"/>
<feBlend mode="normal" in="SourceGraphic" in2="BackgroundImageFix" result="shape"/>
<feGaussianBlur stdDeviation="75" result="effect1_foregroundBlur_261_47"/>
</filter>
<filter id="filter28_f_261_47" x="-347.285" y="4273.43" width="667.116" height="615.505" filterUnits="userSpaceOnUse" color-interpolation-filters="sRGB">
<feFlood flood-opacity="0" result="BackgroundImageFix"/>
<feBlend mode="normal" in="SourceGraphic" in2="BackgroundImageFix" result="shape"/>
<feGaussianBlur stdDeviation="75" result="effect1_foregroundBlur_261_47"/>
</filter>
<filter id="filter29_f_261_47" x="-222.995" y="4241.24" width="667.116" height="615.505" filterUnits="userSpaceOnUse" color-interpolation-filters="sRGB">
<feFlood flood-opacity="0" result="BackgroundImageFix"/>
<feBlend mode="normal" in="SourceGraphic" in2="BackgroundImageFix" result="shape"/>
<feGaussianBlur stdDeviation="75" result="effect1_foregroundBlur_261_47"/>
</filter>
<filter id="filter30_f_261_47" x="-200.227" y="4118.3" width="667.116" height="615.505" filterUnits="userSpaceOnUse" color-interpolation-filters="sRGB">
<feFlood flood-opacity="0" result="BackgroundImageFix"/>
<feBlend mode="normal" in="SourceGraphic" in2="BackgroundImageFix" result="shape"/>
<feGaussianBlur stdDeviation="75" result="effect1_foregroundBlur_261_47"/>
</filter>
<filter id="filter31_f_261_47" x="72.1147" y="4290.89" width="667.116" height="615.505" filterUnits="userSpaceOnUse" color-interpolation-filters="sRGB">
<feFlood flood-opacity="0" result="BackgroundImageFix"/>
<feBlend mode="normal" in="SourceGraphic" in2="BackgroundImageFix" result="shape"/>
<feGaussianBlur stdDeviation="75" result="effect1_foregroundBlur_261_47"/>
</filter>
</defs>
</svg>
