<svg width="1200" height="4673" viewBox="0 0 1200 4673" fill="none" xmlns="http://www.w3.org/2000/svg">
<mask id="mask0_261_107" style="mask-type:alpha" maskUnits="userSpaceOnUse" x="0" y="0" width="1200" height="4673">
<rect width="1200" height="4673" fill="white"/>
</mask>
<g mask="url(#mask0_261_107)">
<rect width="1200" height="4673" fill="#111827"/>
<g filter="url(#filter0_f_261_107)">
<rect x="-130.004" y="23.3428" width="133.565" height="419" rx="56" transform="rotate(-16.2355 -130.004 23.3428)" fill="#94BBE9" fill-opacity="0.4"/>
</g>
<g filter="url(#filter1_f_261_107)">
<rect x="-9.00391" y="71.3429" width="133.565" height="419" rx="56" transform="rotate(-16.2355 -9.00391 71.3429)" fill="#BF7ADF" fill-opacity="0.4"/>
<rect x="-9.00391" y="71.3429" width="133.565" height="419" rx="56" transform="rotate(-16.2355 -9.00391 71.3429)" fill="#BF7ADF" fill-opacity="0.4"/>
</g>
<g filter="url(#filter2_f_261_107)">
<rect x="83.9961" y="-13.6572" width="133.565" height="419" rx="56" transform="rotate(-16.2355 83.9961 -13.6572)" fill="#BF7ADF" fill-opacity="0.4"/>
<rect x="83.9961" y="-13.6572" width="133.565" height="419" rx="56" transform="rotate(-16.2355 83.9961 -13.6572)" fill="#DF7A7A" fill-opacity="0.4"/>
</g>
<g filter="url(#filter3_f_261_107)">
<rect x="201.996" y="286.343" width="133.565" height="419" rx="56" transform="rotate(-16.2355 201.996 286.343)" fill="#94BBE9" fill-opacity="0.4"/>
</g>
<g filter="url(#filter4_f_261_107)">
<rect x="766.996" y="-231.657" width="133.565" height="419" rx="56" transform="rotate(-16.2355 766.996 -231.657)" fill="#94BBE9" fill-opacity="0.4"/>
</g>
<g filter="url(#filter5_f_261_107)">
<rect x="887.996" y="-183.657" width="133.565" height="419" rx="56" transform="rotate(-16.2355 887.996 -183.657)" fill="#BF7ADF" fill-opacity="0.4"/>
<rect x="887.996" y="-183.657" width="133.565" height="419" rx="56" transform="rotate(-16.2355 887.996 -183.657)" fill="#BF7ADF" fill-opacity="0.4"/>
</g>
<g filter="url(#filter6_f_261_107)">
<rect x="980.996" y="-268.657" width="133.565" height="419" rx="56" transform="rotate(-16.2355 980.996 -268.657)" fill="#BF7ADF" fill-opacity="0.4"/>
<rect x="980.996" y="-268.657" width="133.565" height="419" rx="56" transform="rotate(-16.2355 980.996 -268.657)" fill="#DF7A7A" fill-opacity="0.4"/>
</g>
<g filter="url(#filter7_f_261_107)">
<rect x="1099" y="31.3428" width="133.565" height="419" rx="56" transform="rotate(-16.2355 1099 31.3428)" fill="#94BBE9" fill-opacity="0.4"/>
</g>
<g filter="url(#filter8_f_261_107)">
<rect x="1034.25" y="550.321" width="133.565" height="419" rx="56" transform="rotate(24.5127 1034.25 550.321)" fill="#94BBE9" fill-opacity="0.4"/>
</g>
<g filter="url(#filter9_f_261_107)">
<rect x="1094.59" y="665.666" width="133.565" height="419" rx="56" transform="rotate(24.5127 1094.59 665.666)" fill="#BF7ADF" fill-opacity="0.4"/>
<rect x="1094.59" y="665.666" width="133.565" height="419" rx="56" transform="rotate(24.5127 1094.59 665.666)" fill="#BF7ADF" fill-opacity="0.4"/>
</g>
<g filter="url(#filter10_f_261_107)">
<rect x="1220.53" y="661.976" width="133.565" height="419" rx="56" transform="rotate(24.5127 1220.53 661.976)" fill="#BF7ADF" fill-opacity="0.4"/>
<rect x="1220.53" y="661.976" width="133.565" height="419" rx="56" transform="rotate(24.5127 1220.53 661.976)" fill="#DF7A7A" fill-opacity="0.4"/>
</g>
<g filter="url(#filter11_f_261_107)">
<rect x="1114.1" y="966.274" width="133.565" height="419" rx="56" transform="rotate(24.5127 1114.1 966.274)" fill="#94BBE9" fill-opacity="0.4"/>
</g>
<g filter="url(#filter12_f_261_107)">
<rect x="-81.4146" y="1726.25" width="133.565" height="419" rx="56" transform="rotate(-69.5137 -81.4146 1726.25)" fill="#94BBE9" fill-opacity="0.4"/>
</g>
<g filter="url(#filter13_f_261_107)">
<rect x="29.4092" y="1657.97" width="133.565" height="419" rx="56" transform="rotate(-69.5137 29.4092 1657.97)" fill="#BF7ADF" fill-opacity="0.4"/>
<rect x="29.4092" y="1657.97" width="133.565" height="419" rx="56" transform="rotate(-69.5137 29.4092 1657.97)" fill="#BF7ADF" fill-opacity="0.4"/>
</g>
<g filter="url(#filter14_f_261_107)">
<rect x="16.8848" y="1532.6" width="133.565" height="419" rx="56" transform="rotate(-69.5137 16.8848 1532.6)" fill="#BF7ADF" fill-opacity="0.4"/>
<rect x="16.8848" y="1532.6" width="133.565" height="419" rx="56" transform="rotate(-69.5137 16.8848 1532.6)" fill="#DF7A7A" fill-opacity="0.4"/>
</g>
<g filter="url(#filter15_f_261_107)">
<rect x="327.905" y="1617.4" width="133.565" height="419" rx="56" transform="rotate(-69.5137 327.905 1617.4)" fill="#94BBE9" fill-opacity="0.4"/>
</g>
<g filter="url(#filter16_f_261_107)">
<rect width="154.185" height="515.492" rx="56" transform="matrix(-0.820289 -0.571949 0.604746 -0.796419 873.616 2822.25)" fill="#94BBE9" fill-opacity="0.4"/>
</g>
<g filter="url(#filter17_f_261_107)">
<rect width="154.185" height="515.492" rx="56" transform="matrix(-0.820289 -0.571949 0.604746 -0.796419 835.773 2676.1)" fill="#BF7ADF" fill-opacity="0.4"/>
<rect width="154.185" height="515.492" rx="56" transform="matrix(-0.820289 -0.571949 0.604746 -0.796419 835.773 2676.1)" fill="#BF7ADF" fill-opacity="0.4"/>
</g>
<g filter="url(#filter18_f_261_107)">
<rect width="154.185" height="515.492" rx="56" transform="matrix(-0.820289 -0.571949 0.604746 -0.796419 687.345 2655.95)" fill="#BF7ADF" fill-opacity="0.4"/>
<rect width="154.185" height="515.492" rx="56" transform="matrix(-0.820289 -0.571949 0.604746 -0.796419 687.345 2655.95)" fill="#DF7A7A" fill-opacity="0.4"/>
</g>
<g filter="url(#filter19_f_261_107)">
<rect width="154.185" height="515.492" rx="56" transform="matrix(-0.820289 -0.571949 0.604746 -0.796419 898.336 2321.97)" fill="#94BBE9" fill-opacity="0.4"/>
</g>
<g filter="url(#filter20_f_261_107)">
<rect x="429.32" y="3169.87" width="133.565" height="419" rx="56" transform="rotate(143.194 429.32 3169.87)" fill="#94BBE9" fill-opacity="0.4"/>
</g>
<g filter="url(#filter21_f_261_107)">
<rect x="299.17" y="3167.45" width="133.565" height="419" rx="56" transform="rotate(143.194 299.17 3167.45)" fill="#BF7ADF" fill-opacity="0.4"/>
<rect x="299.17" y="3167.45" width="133.565" height="419" rx="56" transform="rotate(143.194 299.17 3167.45)" fill="#BF7ADF" fill-opacity="0.4"/>
</g>
<g filter="url(#filter22_f_261_107)">
<rect x="241.965" y="3279.7" width="133.565" height="419" rx="56" transform="rotate(143.194 241.965 3279.7)" fill="#BF7ADF" fill-opacity="0.4"/>
<rect x="241.965" y="3279.7" width="133.565" height="419" rx="56" transform="rotate(143.194 241.965 3279.7)" fill="#DF7A7A" fill-opacity="0.4"/>
</g>
<g filter="url(#filter23_f_261_107)">
<rect x="26.082" y="3040.29" width="133.565" height="419" rx="56" transform="rotate(143.194 26.082 3040.29)" fill="#94BBE9" fill-opacity="0.4"/>
</g>
<g filter="url(#filter24_f_261_107)">
<rect width="184.464" height="532.076" rx="56" transform="matrix(0.908359 0.418191 -0.369007 0.929427 751.655 3176.25)" fill="#94BBE9" fill-opacity="0.4"/>
</g>
<g filter="url(#filter25_f_261_107)">
<rect width="184.464" height="532.076" rx="56" transform="matrix(0.908359 0.418191 -0.369007 0.929427 843.116 3329.91)" fill="#BF7ADF" fill-opacity="0.4"/>
<rect width="184.464" height="532.076" rx="56" transform="matrix(0.908359 0.418191 -0.369007 0.929427 843.116 3329.91)" fill="#BF7ADF" fill-opacity="0.4"/>
</g>
<g filter="url(#filter26_f_261_107)">
<rect width="184.464" height="532.076" rx="56" transform="matrix(0.908359 0.418191 -0.369007 0.929427 1011.01 3329.57)" fill="#BF7ADF" fill-opacity="0.4"/>
<rect width="184.464" height="532.076" rx="56" transform="matrix(0.908359 0.418191 -0.369007 0.929427 1011.01 3329.57)" fill="#DF7A7A" fill-opacity="0.4"/>
</g>
<g filter="url(#filter27_f_261_107)">
<rect width="184.464" height="532.076" rx="56" transform="matrix(0.908359 0.418191 -0.369007 0.929427 897.479 3725.46)" fill="#94BBE9" fill-opacity="0.4"/>
</g>
<g filter="url(#filter28_f_261_107)">
<rect width="131.588" height="419.51" rx="56" transform="matrix(0.600879 -0.79934 0.793129 0.609053 -219.627 4506.02)" fill="#94BBE9" fill-opacity="0.4"/>
</g>
<g filter="url(#filter29_f_261_107)">
<rect width="131.588" height="419.51" rx="56" transform="matrix(0.600879 -0.79934 0.793129 0.609053 -95.3379 4473.83)" fill="#BF7ADF" fill-opacity="0.4"/>
<rect width="131.588" height="419.51" rx="56" transform="matrix(0.600879 -0.79934 0.793129 0.609053 -95.3379 4473.83)" fill="#BF7ADF" fill-opacity="0.4"/>
</g>
<g filter="url(#filter30_f_261_107)">
<rect width="131.588" height="419.51" rx="56" transform="matrix(0.600879 -0.79934 0.793129 0.609053 -72.5693 4350.89)" fill="#BF7ADF" fill-opacity="0.4"/>
<rect width="131.588" height="419.51" rx="56" transform="matrix(0.600879 -0.79934 0.793129 0.609053 -72.5693 4350.89)" fill="#DF7A7A" fill-opacity="0.4"/>
</g>
<g filter="url(#filter31_f_261_107)">
<rect width="131.588" height="419.51" rx="56" transform="matrix(0.600879 -0.79934 0.793129 0.609053 199.771 4523.48)" fill="#94BBE9" fill-opacity="0.4"/>
</g>
</g>
<defs>
<filter id="filter0_f_261_107" x="-266.595" y="-150.591" width="518.566" height="712.815" filterUnits="userSpaceOnUse" color-interpolation-filters="sRGB">
<feFlood flood-opacity="0" result="BackgroundImageFix"/>
<feBlend mode="normal" in="SourceGraphic" in2="BackgroundImageFix" result="shape"/>
<feGaussianBlur stdDeviation="75" result="effect1_foregroundBlur_261_107"/>
</filter>
<filter id="filter1_f_261_107" x="-145.595" y="-102.591" width="518.566" height="712.815" filterUnits="userSpaceOnUse" color-interpolation-filters="sRGB">
<feFlood flood-opacity="0" result="BackgroundImageFix"/>
<feBlend mode="normal" in="SourceGraphic" in2="BackgroundImageFix" result="shape"/>
<feGaussianBlur stdDeviation="75" result="effect1_foregroundBlur_261_107"/>
</filter>
<filter id="filter2_f_261_107" x="-52.5947" y="-187.591" width="518.566" height="712.815" filterUnits="userSpaceOnUse" color-interpolation-filters="sRGB">
<feFlood flood-opacity="0" result="BackgroundImageFix"/>
<feBlend mode="normal" in="SourceGraphic" in2="BackgroundImageFix" result="shape"/>
<feGaussianBlur stdDeviation="75" result="effect1_foregroundBlur_261_107"/>
</filter>
<filter id="filter3_f_261_107" x="65.4053" y="112.409" width="518.566" height="712.815" filterUnits="userSpaceOnUse" color-interpolation-filters="sRGB">
<feFlood flood-opacity="0" result="BackgroundImageFix"/>
<feBlend mode="normal" in="SourceGraphic" in2="BackgroundImageFix" result="shape"/>
<feGaussianBlur stdDeviation="75" result="effect1_foregroundBlur_261_107"/>
</filter>
<filter id="filter4_f_261_107" x="630.405" y="-405.591" width="518.566" height="712.815" filterUnits="userSpaceOnUse" color-interpolation-filters="sRGB">
<feFlood flood-opacity="0" result="BackgroundImageFix"/>
<feBlend mode="normal" in="SourceGraphic" in2="BackgroundImageFix" result="shape"/>
<feGaussianBlur stdDeviation="75" result="effect1_foregroundBlur_261_107"/>
</filter>
<filter id="filter5_f_261_107" x="751.405" y="-357.591" width="518.566" height="712.815" filterUnits="userSpaceOnUse" color-interpolation-filters="sRGB">
<feFlood flood-opacity="0" result="BackgroundImageFix"/>
<feBlend mode="normal" in="SourceGraphic" in2="BackgroundImageFix" result="shape"/>
<feGaussianBlur stdDeviation="75" result="effect1_foregroundBlur_261_107"/>
</filter>
<filter id="filter6_f_261_107" x="844.405" y="-442.591" width="518.566" height="712.815" filterUnits="userSpaceOnUse" color-interpolation-filters="sRGB">
<feFlood flood-opacity="0" result="BackgroundImageFix"/>
<feBlend mode="normal" in="SourceGraphic" in2="BackgroundImageFix" result="shape"/>
<feGaussianBlur stdDeviation="75" result="effect1_foregroundBlur_261_107"/>
</filter>
<filter id="filter7_f_261_107" x="962.405" y="-142.591" width="518.566" height="712.815" filterUnits="userSpaceOnUse" color-interpolation-filters="sRGB">
<feFlood flood-opacity="0" result="BackgroundImageFix"/>
<feBlend mode="normal" in="SourceGraphic" in2="BackgroundImageFix" result="shape"/>
<feGaussianBlur stdDeviation="75" result="effect1_foregroundBlur_261_107"/>
</filter>
<filter id="filter8_f_261_107" x="728.587" y="418.494" width="559.021" height="700.304" filterUnits="userSpaceOnUse" color-interpolation-filters="sRGB">
<feFlood flood-opacity="0" result="BackgroundImageFix"/>
<feBlend mode="normal" in="SourceGraphic" in2="BackgroundImageFix" result="shape"/>
<feGaussianBlur stdDeviation="75" result="effect1_foregroundBlur_261_107"/>
</filter>
<filter id="filter9_f_261_107" x="788.924" y="533.839" width="559.021" height="700.304" filterUnits="userSpaceOnUse" color-interpolation-filters="sRGB">
<feFlood flood-opacity="0" result="BackgroundImageFix"/>
<feBlend mode="normal" in="SourceGraphic" in2="BackgroundImageFix" result="shape"/>
<feGaussianBlur stdDeviation="75" result="effect1_foregroundBlur_261_107"/>
</filter>
<filter id="filter10_f_261_107" x="914.861" y="530.149" width="559.021" height="700.304" filterUnits="userSpaceOnUse" color-interpolation-filters="sRGB">
<feFlood flood-opacity="0" result="BackgroundImageFix"/>
<feBlend mode="normal" in="SourceGraphic" in2="BackgroundImageFix" result="shape"/>
<feGaussianBlur stdDeviation="75" result="effect1_foregroundBlur_261_107"/>
</filter>
<filter id="filter11_f_261_107" x="808.436" y="834.448" width="559.021" height="700.304" filterUnits="userSpaceOnUse" color-interpolation-filters="sRGB">
<feFlood flood-opacity="0" result="BackgroundImageFix"/>
<feBlend mode="normal" in="SourceGraphic" in2="BackgroundImageFix" result="shape"/>
<feGaussianBlur stdDeviation="75" result="effect1_foregroundBlur_261_107"/>
</filter>
<filter id="filter12_f_261_107" x="-215.373" y="1467.18" width="707.162" height="539.677" filterUnits="userSpaceOnUse" color-interpolation-filters="sRGB">
<feFlood flood-opacity="0" result="BackgroundImageFix"/>
<feBlend mode="normal" in="SourceGraphic" in2="BackgroundImageFix" result="shape"/>
<feGaussianBlur stdDeviation="75" result="effect1_foregroundBlur_261_107"/>
</filter>
<filter id="filter13_f_261_107" x="-104.549" y="1398.89" width="707.162" height="539.677" filterUnits="userSpaceOnUse" color-interpolation-filters="sRGB">
<feFlood flood-opacity="0" result="BackgroundImageFix"/>
<feBlend mode="normal" in="SourceGraphic" in2="BackgroundImageFix" result="shape"/>
<feGaussianBlur stdDeviation="75" result="effect1_foregroundBlur_261_107"/>
</filter>
<filter id="filter14_f_261_107" x="-117.073" y="1273.52" width="707.162" height="539.677" filterUnits="userSpaceOnUse" color-interpolation-filters="sRGB">
<feFlood flood-opacity="0" result="BackgroundImageFix"/>
<feBlend mode="normal" in="SourceGraphic" in2="BackgroundImageFix" result="shape"/>
<feGaussianBlur stdDeviation="75" result="effect1_foregroundBlur_261_107"/>
</filter>
<filter id="filter15_f_261_107" x="193.947" y="1358.32" width="707.162" height="539.677" filterUnits="userSpaceOnUse" color-interpolation-filters="sRGB">
<feFlood flood-opacity="0" result="BackgroundImageFix"/>
<feBlend mode="normal" in="SourceGraphic" in2="BackgroundImageFix" result="shape"/>
<feGaussianBlur stdDeviation="75" result="effect1_foregroundBlur_261_107"/>
</filter>
<filter id="filter16_f_261_107" x="619.868" y="2195.23" width="692.762" height="755.302" filterUnits="userSpaceOnUse" color-interpolation-filters="sRGB">
<feFlood flood-opacity="0" result="BackgroundImageFix"/>
<feBlend mode="normal" in="SourceGraphic" in2="BackgroundImageFix" result="shape"/>
<feGaussianBlur stdDeviation="75" result="effect1_foregroundBlur_261_107"/>
</filter>
<filter id="filter17_f_261_107" x="582.025" y="2049.09" width="692.762" height="755.302" filterUnits="userSpaceOnUse" color-interpolation-filters="sRGB">
<feFlood flood-opacity="0" result="BackgroundImageFix"/>
<feBlend mode="normal" in="SourceGraphic" in2="BackgroundImageFix" result="shape"/>
<feGaussianBlur stdDeviation="75" result="effect1_foregroundBlur_261_107"/>
</filter>
<filter id="filter18_f_261_107" x="433.597" y="2028.93" width="692.762" height="755.302" filterUnits="userSpaceOnUse" color-interpolation-filters="sRGB">
<feFlood flood-opacity="0" result="BackgroundImageFix"/>
<feBlend mode="normal" in="SourceGraphic" in2="BackgroundImageFix" result="shape"/>
<feGaussianBlur stdDeviation="75" result="effect1_foregroundBlur_261_107"/>
</filter>
<filter id="filter19_f_261_107" x="644.588" y="1694.95" width="692.762" height="755.303" filterUnits="userSpaceOnUse" color-interpolation-filters="sRGB">
<feFlood flood-opacity="0" result="BackgroundImageFix"/>
<feBlend mode="normal" in="SourceGraphic" in2="BackgroundImageFix" result="shape"/>
<feGaussianBlur stdDeviation="75" result="effect1_foregroundBlur_261_107"/>
</filter>
<filter id="filter20_f_261_107" x="-56.2617" y="2706.78" width="613.198" height="670.733" filterUnits="userSpaceOnUse" color-interpolation-filters="sRGB">
<feFlood flood-opacity="0" result="BackgroundImageFix"/>
<feBlend mode="normal" in="SourceGraphic" in2="BackgroundImageFix" result="shape"/>
<feGaussianBlur stdDeviation="75" result="effect1_foregroundBlur_261_107"/>
</filter>
<filter id="filter21_f_261_107" x="-186.412" y="2704.35" width="613.198" height="670.733" filterUnits="userSpaceOnUse" color-interpolation-filters="sRGB">
<feFlood flood-opacity="0" result="BackgroundImageFix"/>
<feBlend mode="normal" in="SourceGraphic" in2="BackgroundImageFix" result="shape"/>
<feGaussianBlur stdDeviation="75" result="effect1_foregroundBlur_261_107"/>
</filter>
<filter id="filter22_f_261_107" x="-243.617" y="2816.61" width="613.198" height="670.733" filterUnits="userSpaceOnUse" color-interpolation-filters="sRGB">
<feFlood flood-opacity="0" result="BackgroundImageFix"/>
<feBlend mode="normal" in="SourceGraphic" in2="BackgroundImageFix" result="shape"/>
<feGaussianBlur stdDeviation="75" result="effect1_foregroundBlur_261_107"/>
</filter>
<filter id="filter23_f_261_107" x="-459.5" y="2577.19" width="613.198" height="670.733" filterUnits="userSpaceOnUse" color-interpolation-filters="sRGB">
<feFlood flood-opacity="0" result="BackgroundImageFix"/>
<feBlend mode="normal" in="SourceGraphic" in2="BackgroundImageFix" result="shape"/>
<feGaussianBlur stdDeviation="75" result="effect1_foregroundBlur_261_107"/>
</filter>
<filter id="filter24_f_261_107" x="421.929" y="3044.62" width="630.674" height="834.909" filterUnits="userSpaceOnUse" color-interpolation-filters="sRGB">
<feFlood flood-opacity="0" result="BackgroundImageFix"/>
<feBlend mode="normal" in="SourceGraphic" in2="BackgroundImageFix" result="shape"/>
<feGaussianBlur stdDeviation="75" result="effect1_foregroundBlur_261_107"/>
</filter>
<filter id="filter25_f_261_107" x="513.39" y="3198.29" width="630.674" height="834.909" filterUnits="userSpaceOnUse" color-interpolation-filters="sRGB">
<feFlood flood-opacity="0" result="BackgroundImageFix"/>
<feBlend mode="normal" in="SourceGraphic" in2="BackgroundImageFix" result="shape"/>
<feGaussianBlur stdDeviation="75" result="effect1_foregroundBlur_261_107"/>
</filter>
<filter id="filter26_f_261_107" x="681.282" y="3197.95" width="630.674" height="834.909" filterUnits="userSpaceOnUse" color-interpolation-filters="sRGB">
<feFlood flood-opacity="0" result="BackgroundImageFix"/>
<feBlend mode="normal" in="SourceGraphic" in2="BackgroundImageFix" result="shape"/>
<feGaussianBlur stdDeviation="75" result="effect1_foregroundBlur_261_107"/>
</filter>
<filter id="filter27_f_261_107" x="567.753" y="3593.84" width="630.674" height="834.909" filterUnits="userSpaceOnUse" color-interpolation-filters="sRGB">
<feFlood flood-opacity="0" result="BackgroundImageFix"/>
<feBlend mode="normal" in="SourceGraphic" in2="BackgroundImageFix" result="shape"/>
<feGaussianBlur stdDeviation="75" result="effect1_foregroundBlur_261_107"/>
</filter>
<filter id="filter28_f_261_107" x="-347.289" y="4273.43" width="667.116" height="615.505" filterUnits="userSpaceOnUse" color-interpolation-filters="sRGB">
<feFlood flood-opacity="0" result="BackgroundImageFix"/>
<feBlend mode="normal" in="SourceGraphic" in2="BackgroundImageFix" result="shape"/>
<feGaussianBlur stdDeviation="75" result="effect1_foregroundBlur_261_107"/>
</filter>
<filter id="filter29_f_261_107" x="-222.999" y="4241.24" width="667.115" height="615.505" filterUnits="userSpaceOnUse" color-interpolation-filters="sRGB">
<feFlood flood-opacity="0" result="BackgroundImageFix"/>
<feBlend mode="normal" in="SourceGraphic" in2="BackgroundImageFix" result="shape"/>
<feGaussianBlur stdDeviation="75" result="effect1_foregroundBlur_261_107"/>
</filter>
<filter id="filter30_f_261_107" x="-200.23" y="4118.3" width="667.115" height="615.505" filterUnits="userSpaceOnUse" color-interpolation-filters="sRGB">
<feFlood flood-opacity="0" result="BackgroundImageFix"/>
<feBlend mode="normal" in="SourceGraphic" in2="BackgroundImageFix" result="shape"/>
<feGaussianBlur stdDeviation="75" result="effect1_foregroundBlur_261_107"/>
</filter>
<filter id="filter31_f_261_107" x="72.1104" y="4290.89" width="667.115" height="615.505" filterUnits="userSpaceOnUse" color-interpolation-filters="sRGB">
<feFlood flood-opacity="0" result="BackgroundImageFix"/>
<feBlend mode="normal" in="SourceGraphic" in2="BackgroundImageFix" result="shape"/>
<feGaussianBlur stdDeviation="75" result="effect1_foregroundBlur_261_107"/>
</filter>
</defs>
</svg>
