<svg width="390" height="5000" viewBox="0 0 390 5000" fill="none" xmlns="http://www.w3.org/2000/svg">
<mask id="mask0_184_192" style="mask-type:alpha" maskUnits="userSpaceOnUse" x="0" y="0" width="390" height="5000">
<rect width="390" height="5000" fill="#D9D9D9"/>
</mask>
<g mask="url(#mask0_184_192)">
<rect width="390" height="5000" fill="#D9D9D9"/>
<g filter="url(#filter0_f_184_192)">
<rect width="143.06" height="810.885" rx="56" transform="matrix(0.853467 -0.521146 0.137549 0.990495 -146 -38.2)" fill="#94BBE9" fill-opacity="0.4"/>
</g>
<g filter="url(#filter1_f_184_192)">
<rect width="143.06" height="810.885" rx="56" transform="matrix(0.853467 -0.521146 0.137549 0.990495 -30.7949 57.6317)" fill="#BF7ADF" fill-opacity="0.4"/>
<rect width="143.06" height="810.885" rx="56" transform="matrix(0.853467 -0.521146 0.137549 0.990495 -30.7949 57.6317)" fill="#BF7ADF" fill-opacity="0.4"/>
</g>
<g filter="url(#filter2_f_184_192)">
<rect width="143.06" height="810.885" rx="56" transform="matrix(0.853467 -0.521146 0.137549 0.990495 57.7515 -112.07)" fill="#BF7ADF" fill-opacity="0.4"/>
<rect width="143.06" height="810.885" rx="56" transform="matrix(0.853467 -0.521146 0.137549 0.990495 57.7515 -112.07)" fill="#DF7A7A" fill-opacity="0.4"/>
</g>
<g filter="url(#filter3_f_184_192)">
<rect width="143.06" height="810.885" rx="56" transform="matrix(0.995456 0.0952255 -0.484313 0.874895 189.45 813.735)" fill="#94BBE9" fill-opacity="0.4"/>
</g>
<g filter="url(#filter4_f_184_192)">
<rect width="143.06" height="810.885" rx="56" transform="matrix(0.995456 0.0952255 -0.484313 0.874895 224.106 959.526)" fill="#BF7ADF" fill-opacity="0.4"/>
<rect width="143.06" height="810.885" rx="56" transform="matrix(0.995456 0.0952255 -0.484313 0.874895 224.106 959.526)" fill="#BF7ADF" fill-opacity="0.4"/>
</g>
<g filter="url(#filter5_f_184_192)">
<rect width="143.06" height="810.885" rx="56" transform="matrix(0.995456 0.0952255 -0.484313 0.874895 396.77 876.903)" fill="#BF7ADF" fill-opacity="0.4"/>
<rect width="143.06" height="810.885" rx="56" transform="matrix(0.995456 0.0952255 -0.484313 0.874895 396.77 876.903)" fill="#DF7A7A" fill-opacity="0.4"/>
</g>
<g filter="url(#filter6_f_184_192)">
<rect width="143.06" height="810.885" rx="56" transform="matrix(0.593451 -0.80487 0.501429 0.865199 -92.9463 2168.61)" fill="#94BBE9" fill-opacity="0.4"/>
</g>
<g filter="url(#filter7_f_184_192)">
<rect width="143.06" height="810.885" rx="56" transform="matrix(0.593451 -0.80487 0.501429 0.865199 49.9189 2213.84)" fill="#BF7ADF" fill-opacity="0.4"/>
<rect width="143.06" height="810.885" rx="56" transform="matrix(0.593451 -0.80487 0.501429 0.865199 49.9189 2213.84)" fill="#BF7ADF" fill-opacity="0.4"/>
</g>
<g filter="url(#filter8_f_184_192)">
<rect width="143.06" height="810.885" rx="56" transform="matrix(0.593451 -0.80487 0.501429 0.865199 67.8193 2023.27)" fill="#BF7ADF" fill-opacity="0.4"/>
<rect width="143.06" height="810.885" rx="56" transform="matrix(0.593451 -0.80487 0.501429 0.865199 67.8193 2023.27)" fill="#DF7A7A" fill-opacity="0.4"/>
</g>
<g filter="url(#filter9_f_184_192)">
<rect width="143.06" height="810.885" rx="56" transform="matrix(0.593451 -0.80487 0.501429 0.865199 -153.946 3272.61)" fill="#94BBE9" fill-opacity="0.4"/>
</g>
<g filter="url(#filter10_f_184_192)">
<rect width="143.06" height="810.885" rx="56" transform="matrix(0.593451 -0.80487 0.501429 0.865199 -11.0811 3317.84)" fill="#BF7ADF" fill-opacity="0.4"/>
<rect width="143.06" height="810.885" rx="56" transform="matrix(0.593451 -0.80487 0.501429 0.865199 -11.0811 3317.84)" fill="#BF7ADF" fill-opacity="0.4"/>
</g>
<g filter="url(#filter11_f_184_192)">
<rect width="143.06" height="810.885" rx="56" transform="matrix(0.593451 -0.80487 0.501429 0.865199 6.81934 3127.27)" fill="#BF7ADF" fill-opacity="0.4"/>
<rect width="143.06" height="810.885" rx="56" transform="matrix(0.593451 -0.80487 0.501429 0.865199 6.81934 3127.27)" fill="#DF7A7A" fill-opacity="0.4"/>
</g>
<g filter="url(#filter12_f_184_192)">
<rect width="143.06" height="810.885" rx="56" transform="matrix(0.993927 0.110046 -0.497294 0.867582 247.105 4319.4)" fill="#94BBE9" fill-opacity="0.4"/>
</g>
<g filter="url(#filter13_f_184_192)">
<rect width="143.06" height="810.885" rx="56" transform="matrix(0.993927 0.110046 -0.497294 0.867582 279.585 4465.69)" fill="#BF7ADF" fill-opacity="0.4"/>
<rect width="143.06" height="810.885" rx="56" transform="matrix(0.993927 0.110046 -0.497294 0.867582 279.585 4465.69)" fill="#BF7ADF" fill-opacity="0.4"/>
</g>
<g filter="url(#filter14_f_184_192)">
<rect width="143.06" height="810.885" rx="56" transform="matrix(0.993927 0.110046 -0.497294 0.867582 453.46 4385.64)" fill="#BF7ADF" fill-opacity="0.4"/>
<rect width="143.06" height="810.885" rx="56" transform="matrix(0.993927 0.110046 -0.497294 0.867582 453.46 4385.64)" fill="#DF7A7A" fill-opacity="0.4"/>
</g>
</g>
<defs>
<filter id="filter0_f_184_192" x="-288.921" y="-240.793" width="519.476" height="1133.81" filterUnits="userSpaceOnUse" color-interpolation-filters="sRGB">
<feFlood flood-opacity="0" result="BackgroundImageFix"/>
<feBlend mode="normal" in="SourceGraphic" in2="BackgroundImageFix" result="shape"/>
<feGaussianBlur stdDeviation="75" result="effect1_foregroundBlur_184_192"/>
</filter>
<filter id="filter1_f_184_192" x="-173.716" y="-144.961" width="519.476" height="1133.81" filterUnits="userSpaceOnUse" color-interpolation-filters="sRGB">
<feFlood flood-opacity="0" result="BackgroundImageFix"/>
<feBlend mode="normal" in="SourceGraphic" in2="BackgroundImageFix" result="shape"/>
<feGaussianBlur stdDeviation="75" result="effect1_foregroundBlur_184_192"/>
</filter>
<filter id="filter2_f_184_192" x="-85.1699" y="-314.663" width="519.476" height="1133.81" filterUnits="userSpaceOnUse" color-interpolation-filters="sRGB">
<feFlood flood-opacity="0" result="BackgroundImageFix"/>
<feBlend mode="normal" in="SourceGraphic" in2="BackgroundImageFix" result="shape"/>
<feGaussianBlur stdDeviation="75" result="effect1_foregroundBlur_184_192"/>
</filter>
<filter id="filter3_f_184_192" x="-332.412" y="668.774" width="793.412" height="1012.98" filterUnits="userSpaceOnUse" color-interpolation-filters="sRGB">
<feFlood flood-opacity="0" result="BackgroundImageFix"/>
<feBlend mode="normal" in="SourceGraphic" in2="BackgroundImageFix" result="shape"/>
<feGaussianBlur stdDeviation="75" result="effect1_foregroundBlur_184_192"/>
</filter>
<filter id="filter4_f_184_192" x="-297.755" y="814.565" width="793.412" height="1012.98" filterUnits="userSpaceOnUse" color-interpolation-filters="sRGB">
<feFlood flood-opacity="0" result="BackgroundImageFix"/>
<feBlend mode="normal" in="SourceGraphic" in2="BackgroundImageFix" result="shape"/>
<feGaussianBlur stdDeviation="75" result="effect1_foregroundBlur_184_192"/>
</filter>
<filter id="filter5_f_184_192" x="-125.092" y="731.942" width="793.412" height="1012.98" filterUnits="userSpaceOnUse" color-interpolation-filters="sRGB">
<feFlood flood-opacity="0" result="BackgroundImageFix"/>
<feBlend mode="normal" in="SourceGraphic" in2="BackgroundImageFix" result="shape"/>
<feGaussianBlur stdDeviation="75" result="effect1_foregroundBlur_184_192"/>
</filter>
<filter id="filter6_f_184_192" x="-225.142" y="1930.82" width="755.892" height="1062.02" filterUnits="userSpaceOnUse" color-interpolation-filters="sRGB">
<feFlood flood-opacity="0" result="BackgroundImageFix"/>
<feBlend mode="normal" in="SourceGraphic" in2="BackgroundImageFix" result="shape"/>
<feGaussianBlur stdDeviation="75" result="effect1_foregroundBlur_184_192"/>
</filter>
<filter id="filter7_f_184_192" x="-82.2769" y="1976.05" width="755.892" height="1062.02" filterUnits="userSpaceOnUse" color-interpolation-filters="sRGB">
<feFlood flood-opacity="0" result="BackgroundImageFix"/>
<feBlend mode="normal" in="SourceGraphic" in2="BackgroundImageFix" result="shape"/>
<feGaussianBlur stdDeviation="75" result="effect1_foregroundBlur_184_192"/>
</filter>
<filter id="filter8_f_184_192" x="-64.3765" y="1785.47" width="755.892" height="1062.02" filterUnits="userSpaceOnUse" color-interpolation-filters="sRGB">
<feFlood flood-opacity="0" result="BackgroundImageFix"/>
<feBlend mode="normal" in="SourceGraphic" in2="BackgroundImageFix" result="shape"/>
<feGaussianBlur stdDeviation="75" result="effect1_foregroundBlur_184_192"/>
</filter>
<filter id="filter9_f_184_192" x="-286.142" y="3034.82" width="755.892" height="1062.02" filterUnits="userSpaceOnUse" color-interpolation-filters="sRGB">
<feFlood flood-opacity="0" result="BackgroundImageFix"/>
<feBlend mode="normal" in="SourceGraphic" in2="BackgroundImageFix" result="shape"/>
<feGaussianBlur stdDeviation="75" result="effect1_foregroundBlur_184_192"/>
</filter>
<filter id="filter10_f_184_192" x="-143.277" y="3080.05" width="755.892" height="1062.02" filterUnits="userSpaceOnUse" color-interpolation-filters="sRGB">
<feFlood flood-opacity="0" result="BackgroundImageFix"/>
<feBlend mode="normal" in="SourceGraphic" in2="BackgroundImageFix" result="shape"/>
<feGaussianBlur stdDeviation="75" result="effect1_foregroundBlur_184_192"/>
</filter>
<filter id="filter11_f_184_192" x="-125.376" y="2889.47" width="755.892" height="1062.02" filterUnits="userSpaceOnUse" color-interpolation-filters="sRGB">
<feFlood flood-opacity="0" result="BackgroundImageFix"/>
<feBlend mode="normal" in="SourceGraphic" in2="BackgroundImageFix" result="shape"/>
<feGaussianBlur stdDeviation="75" result="effect1_foregroundBlur_184_192"/>
</filter>
<filter id="filter12_f_184_192" x="-284.886" y="4175.16" width="802.926" height="1007.72" filterUnits="userSpaceOnUse" color-interpolation-filters="sRGB">
<feFlood flood-opacity="0" result="BackgroundImageFix"/>
<feBlend mode="normal" in="SourceGraphic" in2="BackgroundImageFix" result="shape"/>
<feGaussianBlur stdDeviation="75" result="effect1_foregroundBlur_184_192"/>
</filter>
<filter id="filter13_f_184_192" x="-252.406" y="4321.45" width="802.926" height="1007.72" filterUnits="userSpaceOnUse" color-interpolation-filters="sRGB">
<feFlood flood-opacity="0" result="BackgroundImageFix"/>
<feBlend mode="normal" in="SourceGraphic" in2="BackgroundImageFix" result="shape"/>
<feGaussianBlur stdDeviation="75" result="effect1_foregroundBlur_184_192"/>
</filter>
<filter id="filter14_f_184_192" x="-78.5308" y="4241.41" width="802.926" height="1007.72" filterUnits="userSpaceOnUse" color-interpolation-filters="sRGB">
<feFlood flood-opacity="0" result="BackgroundImageFix"/>
<feBlend mode="normal" in="SourceGraphic" in2="BackgroundImageFix" result="shape"/>
<feGaussianBlur stdDeviation="75" result="effect1_foregroundBlur_184_192"/>
</filter>
</defs>
</svg>
