<svg width="1288" height="4752" viewBox="0 0 1288 4752" fill="none" xmlns="http://www.w3.org/2000/svg">
<rect x="65" y="79" width="1200" height="4673" fill="#111827"/>
<g filter="url(#filter0_f_93_38)">
<rect x="153" y="211.343" width="133.565" height="419" rx="56" transform="rotate(-16.2355 153 211.343)" fill="#94BBE9" fill-opacity="0.4"/>
</g>
<g filter="url(#filter1_f_93_38)">
<rect x="274" y="259.343" width="133.565" height="419" rx="56" transform="rotate(-16.2355 274 259.343)" fill="#BF7ADF" fill-opacity="0.4"/>
<rect x="274" y="259.343" width="133.565" height="419" rx="56" transform="rotate(-16.2355 274 259.343)" fill="#BF7ADF" fill-opacity="0.4"/>
</g>
<g filter="url(#filter2_f_93_38)">
<rect x="367" y="174.343" width="133.565" height="419" rx="56" transform="rotate(-16.2355 367 174.343)" fill="#BF7ADF" fill-opacity="0.4"/>
<rect x="367" y="174.343" width="133.565" height="419" rx="56" transform="rotate(-16.2355 367 174.343)" fill="#DF7A7A" fill-opacity="0.4"/>
</g>
<g filter="url(#filter3_f_93_38)">
<rect x="485" y="474.343" width="133.565" height="419" rx="56" transform="rotate(-16.2355 485 474.343)" fill="#94BBE9" fill-opacity="0.4"/>
</g>
<g filter="url(#filter4_f_93_38)">
<rect x="606" y="522.343" width="133.565" height="419" rx="56" transform="rotate(-16.2355 606 522.343)" fill="#BF7ADF" fill-opacity="0.4"/>
<rect x="606" y="522.343" width="133.565" height="419" rx="56" transform="rotate(-16.2355 606 522.343)" fill="#BF7ADF" fill-opacity="0.4"/>
</g>
<g filter="url(#filter5_f_93_38)">
<rect x="699" y="437.343" width="133.565" height="419" rx="56" transform="rotate(-16.2355 699 437.343)" fill="#BF7ADF" fill-opacity="0.4"/>
<rect x="699" y="437.343" width="133.565" height="419" rx="56" transform="rotate(-16.2355 699 437.343)" fill="#DF7A7A" fill-opacity="0.4"/>
</g>
<g filter="url(#filter6_f_93_38)">
<rect x="137" y="1660.34" width="133.565" height="419" rx="56" transform="rotate(-16.2355 137 1660.34)" fill="#94BBE9" fill-opacity="0.4"/>
</g>
<g filter="url(#filter7_f_93_38)">
<rect x="258" y="1708.34" width="133.565" height="419" rx="56" transform="rotate(-16.2355 258 1708.34)" fill="#BF7ADF" fill-opacity="0.4"/>
<rect x="258" y="1708.34" width="133.565" height="419" rx="56" transform="rotate(-16.2355 258 1708.34)" fill="#BF7ADF" fill-opacity="0.4"/>
</g>
<g filter="url(#filter8_f_93_38)">
<rect x="351" y="1623.34" width="133.565" height="419" rx="56" transform="rotate(-16.2355 351 1623.34)" fill="#BF7ADF" fill-opacity="0.4"/>
<rect x="351" y="1623.34" width="133.565" height="419" rx="56" transform="rotate(-16.2355 351 1623.34)" fill="#DF7A7A" fill-opacity="0.4"/>
</g>
<g filter="url(#filter9_f_93_38)">
<rect x="870.666" y="2053" width="133.565" height="419" rx="56" transform="rotate(30.8191 870.666 2053)" fill="#94BBE9" fill-opacity="0.4"/>
</g>
<g filter="url(#filter10_f_93_38)">
<rect x="917.967" y="2174.27" width="133.565" height="419" rx="56" transform="rotate(30.8191 917.967 2174.27)" fill="#BF7ADF" fill-opacity="0.4"/>
<rect x="917.967" y="2174.27" width="133.565" height="419" rx="56" transform="rotate(30.8191 917.967 2174.27)" fill="#BF7ADF" fill-opacity="0.4"/>
</g>
<g filter="url(#filter11_f_93_38)">
<rect x="1043.55" y="2184.44" width="133.565" height="419" rx="56" transform="rotate(30.8191 1043.55 2184.44)" fill="#BF7ADF" fill-opacity="0.4"/>
<rect x="1043.55" y="2184.44" width="133.565" height="419" rx="56" transform="rotate(30.8191 1043.55 2184.44)" fill="#DF7A7A" fill-opacity="0.4"/>
</g>
<g filter="url(#filter12_f_93_38)">
<rect x="558.666" y="4005" width="133.565" height="419" rx="56" transform="rotate(30.8191 558.666 4005)" fill="#94BBE9" fill-opacity="0.4"/>
</g>
<g filter="url(#filter13_f_93_38)">
<rect x="605.967" y="4126.27" width="133.565" height="419" rx="56" transform="rotate(30.8191 605.967 4126.27)" fill="#BF7ADF" fill-opacity="0.4"/>
<rect x="605.967" y="4126.27" width="133.565" height="419" rx="56" transform="rotate(30.8191 605.967 4126.27)" fill="#BF7ADF" fill-opacity="0.4"/>
</g>
<g filter="url(#filter14_f_93_38)">
<rect x="731.549" y="4136.44" width="133.565" height="419" rx="56" transform="rotate(30.8191 731.549 4136.44)" fill="#BF7ADF" fill-opacity="0.4"/>
<rect x="731.549" y="4136.44" width="133.565" height="419" rx="56" transform="rotate(30.8191 731.549 4136.44)" fill="#DF7A7A" fill-opacity="0.4"/>
</g>
<defs>
<filter id="filter0_f_93_38" x="16.4089" y="37.4089" width="518.567" height="712.815" filterUnits="userSpaceOnUse" color-interpolation-filters="sRGB">
<feFlood flood-opacity="0" result="BackgroundImageFix"/>
<feBlend mode="normal" in="SourceGraphic" in2="BackgroundImageFix" result="shape"/>
<feGaussianBlur stdDeviation="75" result="effect1_foregroundBlur_93_38"/>
</filter>
<filter id="filter1_f_93_38" x="137.409" y="85.409" width="518.567" height="712.815" filterUnits="userSpaceOnUse" color-interpolation-filters="sRGB">
<feFlood flood-opacity="0" result="BackgroundImageFix"/>
<feBlend mode="normal" in="SourceGraphic" in2="BackgroundImageFix" result="shape"/>
<feGaussianBlur stdDeviation="75" result="effect1_foregroundBlur_93_38"/>
</filter>
<filter id="filter2_f_93_38" x="230.409" y="0.408936" width="518.567" height="712.815" filterUnits="userSpaceOnUse" color-interpolation-filters="sRGB">
<feFlood flood-opacity="0" result="BackgroundImageFix"/>
<feBlend mode="normal" in="SourceGraphic" in2="BackgroundImageFix" result="shape"/>
<feGaussianBlur stdDeviation="75" result="effect1_foregroundBlur_93_38"/>
</filter>
<filter id="filter3_f_93_38" x="348.409" y="300.409" width="518.567" height="712.815" filterUnits="userSpaceOnUse" color-interpolation-filters="sRGB">
<feFlood flood-opacity="0" result="BackgroundImageFix"/>
<feBlend mode="normal" in="SourceGraphic" in2="BackgroundImageFix" result="shape"/>
<feGaussianBlur stdDeviation="75" result="effect1_foregroundBlur_93_38"/>
</filter>
<filter id="filter4_f_93_38" x="469.409" y="348.409" width="518.567" height="712.815" filterUnits="userSpaceOnUse" color-interpolation-filters="sRGB">
<feFlood flood-opacity="0" result="BackgroundImageFix"/>
<feBlend mode="normal" in="SourceGraphic" in2="BackgroundImageFix" result="shape"/>
<feGaussianBlur stdDeviation="75" result="effect1_foregroundBlur_93_38"/>
</filter>
<filter id="filter5_f_93_38" x="562.409" y="263.409" width="518.567" height="712.815" filterUnits="userSpaceOnUse" color-interpolation-filters="sRGB">
<feFlood flood-opacity="0" result="BackgroundImageFix"/>
<feBlend mode="normal" in="SourceGraphic" in2="BackgroundImageFix" result="shape"/>
<feGaussianBlur stdDeviation="75" result="effect1_foregroundBlur_93_38"/>
</filter>
<filter id="filter6_f_93_38" x="0.408936" y="1486.41" width="518.567" height="712.815" filterUnits="userSpaceOnUse" color-interpolation-filters="sRGB">
<feFlood flood-opacity="0" result="BackgroundImageFix"/>
<feBlend mode="normal" in="SourceGraphic" in2="BackgroundImageFix" result="shape"/>
<feGaussianBlur stdDeviation="75" result="effect1_foregroundBlur_93_38"/>
</filter>
<filter id="filter7_f_93_38" x="121.409" y="1534.41" width="518.567" height="712.815" filterUnits="userSpaceOnUse" color-interpolation-filters="sRGB">
<feFlood flood-opacity="0" result="BackgroundImageFix"/>
<feBlend mode="normal" in="SourceGraphic" in2="BackgroundImageFix" result="shape"/>
<feGaussianBlur stdDeviation="75" result="effect1_foregroundBlur_93_38"/>
</filter>
<filter id="filter8_f_93_38" x="214.409" y="1449.41" width="518.567" height="712.815" filterUnits="userSpaceOnUse" color-interpolation-filters="sRGB">
<feFlood flood-opacity="0" result="BackgroundImageFix"/>
<feBlend mode="normal" in="SourceGraphic" in2="BackgroundImageFix" result="shape"/>
<feGaussianBlur stdDeviation="75" result="effect1_foregroundBlur_93_38"/>
</filter>
<filter id="filter9_f_93_38" x="526.774" y="1923.77" width="587.822" height="686.714" filterUnits="userSpaceOnUse" color-interpolation-filters="sRGB">
<feFlood flood-opacity="0" result="BackgroundImageFix"/>
<feBlend mode="normal" in="SourceGraphic" in2="BackgroundImageFix" result="shape"/>
<feGaussianBlur stdDeviation="75" result="effect1_foregroundBlur_93_38"/>
</filter>
<filter id="filter10_f_93_38" x="574.075" y="2045.05" width="587.822" height="686.714" filterUnits="userSpaceOnUse" color-interpolation-filters="sRGB">
<feFlood flood-opacity="0" result="BackgroundImageFix"/>
<feBlend mode="normal" in="SourceGraphic" in2="BackgroundImageFix" result="shape"/>
<feGaussianBlur stdDeviation="75" result="effect1_foregroundBlur_93_38"/>
</filter>
<filter id="filter11_f_93_38" x="699.657" y="2055.21" width="587.822" height="686.714" filterUnits="userSpaceOnUse" color-interpolation-filters="sRGB">
<feFlood flood-opacity="0" result="BackgroundImageFix"/>
<feBlend mode="normal" in="SourceGraphic" in2="BackgroundImageFix" result="shape"/>
<feGaussianBlur stdDeviation="75" result="effect1_foregroundBlur_93_38"/>
</filter>
<filter id="filter12_f_93_38" x="214.774" y="3875.77" width="587.822" height="686.714" filterUnits="userSpaceOnUse" color-interpolation-filters="sRGB">
<feFlood flood-opacity="0" result="BackgroundImageFix"/>
<feBlend mode="normal" in="SourceGraphic" in2="BackgroundImageFix" result="shape"/>
<feGaussianBlur stdDeviation="75" result="effect1_foregroundBlur_93_38"/>
</filter>
<filter id="filter13_f_93_38" x="262.075" y="3997.05" width="587.822" height="686.714" filterUnits="userSpaceOnUse" color-interpolation-filters="sRGB">
<feFlood flood-opacity="0" result="BackgroundImageFix"/>
<feBlend mode="normal" in="SourceGraphic" in2="BackgroundImageFix" result="shape"/>
<feGaussianBlur stdDeviation="75" result="effect1_foregroundBlur_93_38"/>
</filter>
<filter id="filter14_f_93_38" x="387.657" y="4007.21" width="587.822" height="686.714" filterUnits="userSpaceOnUse" color-interpolation-filters="sRGB">
<feFlood flood-opacity="0" result="BackgroundImageFix"/>
<feBlend mode="normal" in="SourceGraphic" in2="BackgroundImageFix" result="shape"/>
<feGaussianBlur stdDeviation="75" result="effect1_foregroundBlur_93_38"/>
</filter>
</defs>
</svg>
